<svg width="25" height="25" viewBox="0 0 25 25" fill="none" xmlns="http://www.w3.org/2000/svg">
<g id="pepicons-pencil:dots-y">
<path id="Vector" d="M11 20.1C11 19.5961 11.2107 19.1128 11.5858 18.7565C11.9609 18.4002 12.4696 18.2 13 18.2C13.5304 18.2 14.0391 18.4002 14.4142 18.7565C14.7893 19.1128 15 19.5961 15 20.1C15 20.6039 14.7893 21.0872 14.4142 21.4435C14.0391 21.7998 13.5304 22 13 22C12.4696 22 11.9609 21.7998 11.5858 21.4435C11.2107 21.0872 11 20.6039 11 20.1ZM11 12.5C11 11.9961 11.2107 11.5128 11.5858 11.1565C11.9609 10.8002 12.4696 10.6 13 10.6C13.5304 10.6 14.0391 10.8002 14.4142 11.1565C14.7893 11.5128 15 11.9961 15 12.5C15 13.0039 14.7893 13.4872 14.4142 13.8435C14.0391 14.1998 13.5304 14.4 13 14.4C12.4696 14.4 11.9609 14.1998 11.5858 13.8435C11.2107 13.4872 11 13.0039 11 12.5ZM11 4.9C11 4.39609 11.2107 3.91282 11.5858 3.5565C11.9609 3.20018 12.4696 3 13 3C13.5304 3 14.0391 3.20018 14.4142 3.5565C14.7893 3.91282 15 4.39609 15 4.9C15 5.40391 14.7893 5.88718 14.4142 6.2435C14.0391 6.59982 13.5304 6.8 13 6.8C12.4696 6.8 11.9609 6.59982 11.5858 6.2435C11.2107 5.88718 11 5.40391 11 4.9Z" fill="#278664"/>
</g>
</svg>
