<svg width="24" height="24" viewBox="0 0 24 24" fill="none" xmlns="http://www.w3.org/2000/svg">
<g id="solar:widget-2-outline">
<path id="Vector" fill-rule="evenodd" clip-rule="evenodd" d="M17.448 1.75C16.549 1.75 15.8 1.75 15.206 1.83C14.578 1.914 14.011 2.1 13.556 2.555C13.1 3.011 12.914 3.578 12.83 4.205C12.75 4.8 12.75 5.55 12.75 6.448V6.552C12.75 7.45 12.75 8.2 12.83 8.794C12.914 9.422 13.1 9.989 13.556 10.444C14.011 10.9 14.578 11.086 15.206 11.17C15.8 11.25 16.549 11.25 17.448 11.25H17.552C18.451 11.25 19.2 11.25 19.794 11.17C20.422 11.086 20.989 10.9 21.444 10.444C21.9 9.989 22.086 9.422 22.17 8.794C22.25 8.2 22.25 7.45 22.25 6.552V6.448C22.25 5.55 22.25 4.8 22.17 4.206C22.086 3.578 21.9 3.011 21.444 2.556C20.989 2.1 20.422 1.914 19.794 1.83C19.2 1.75 18.451 1.75 17.552 1.75H17.448ZM14.616 3.616C14.746 3.486 14.944 3.379 15.406 3.316C15.888 3.252 16.536 3.25 17.5 3.25C18.464 3.25 19.112 3.252 19.595 3.317C20.056 3.379 20.254 3.486 20.384 3.617C20.514 3.747 20.621 3.944 20.684 4.405C20.748 4.888 20.75 5.536 20.75 6.5C20.75 7.464 20.748 8.112 20.683 8.595C20.621 9.056 20.514 9.254 20.383 9.384C20.253 9.514 20.056 9.621 19.595 9.684C19.112 9.748 18.464 9.75 17.5 9.75C16.536 9.75 15.888 9.748 15.405 9.683C14.944 9.621 14.746 9.514 14.616 9.383C14.486 9.253 14.379 9.056 14.316 8.595C14.252 8.112 14.25 7.464 14.25 6.5C14.25 5.536 14.252 4.888 14.316 4.405C14.379 3.944 14.486 3.746 14.616 3.616ZM6.448 12.75C5.55 12.75 4.8 12.75 4.206 12.83C3.578 12.914 3.011 13.1 2.556 13.556C2.1 14.011 1.914 14.578 1.83 15.206C1.75 15.8 1.75 16.549 1.75 17.448V17.552C1.75 18.451 1.75 19.2 1.83 19.794C1.914 20.422 2.1 20.989 2.555 21.444C3.011 21.9 3.578 22.086 4.205 22.17C4.8 22.25 5.55 22.25 6.448 22.25H6.552C7.45 22.25 8.2 22.25 8.794 22.17C9.422 22.086 9.989 21.9 10.444 21.444C10.9 20.989 11.086 20.422 11.17 19.794C11.25 19.2 11.25 18.451 11.25 17.552V17.448C11.25 16.549 11.25 15.8 11.17 15.206C11.086 14.578 10.9 14.011 10.444 13.556C9.989 13.1 9.422 12.914 8.794 12.83C8.2 12.75 7.45 12.75 6.552 12.75H6.448ZM3.616 14.616C3.746 14.486 3.944 14.379 4.406 14.316C4.888 14.252 5.536 14.25 6.5 14.25C7.464 14.25 8.112 14.252 8.595 14.316C9.056 14.379 9.254 14.486 9.384 14.616C9.514 14.746 9.621 14.944 9.684 15.406C9.748 15.888 9.75 16.536 9.75 17.5C9.75 18.464 9.748 19.112 9.683 19.595C9.621 20.056 9.514 20.254 9.383 20.384C9.253 20.514 9.056 20.621 8.595 20.684C8.112 20.748 7.464 20.75 6.5 20.75C5.536 20.75 4.888 20.748 4.405 20.683C3.944 20.621 3.746 20.514 3.616 20.383C3.486 20.253 3.379 20.056 3.316 19.595C3.252 19.112 3.25 18.464 3.25 17.5C3.25 16.536 3.252 15.888 3.317 15.405C3.379 14.944 3.486 14.746 3.617 14.616H3.616ZM1.75 6.5C1.75 5.87622 1.87286 5.25855 2.11157 4.68225C2.35028 4.10596 2.70016 3.58232 3.14124 3.14124C3.58232 2.70016 4.10596 2.35028 4.68225 2.11157C5.25855 1.87286 5.87622 1.75 6.5 1.75C7.12378 1.75 7.74145 1.87286 8.31775 2.11157C8.89404 2.35028 9.41768 2.70016 9.85876 3.14124C10.2998 3.58232 10.6497 4.10596 10.8884 4.68225C11.1271 5.25855 11.25 5.87622 11.25 6.5C11.25 7.75978 10.7496 8.96796 9.85876 9.85876C8.96796 10.7496 7.75978 11.25 6.5 11.25C5.24022 11.25 4.03204 10.7496 3.14124 9.85876C2.25044 8.96796 1.75 7.75978 1.75 6.5ZM6.5 3.25C5.63805 3.25 4.8114 3.59241 4.2019 4.2019C3.59241 4.8114 3.25 5.63805 3.25 6.5C3.25 7.36195 3.59241 8.1886 4.2019 8.7981C4.8114 9.40759 5.63805 9.75 6.5 9.75C7.36195 9.75 8.1886 9.40759 8.7981 8.7981C9.40759 8.1886 9.75 7.36195 9.75 6.5C9.75 5.63805 9.40759 4.8114 8.7981 4.2019C8.1886 3.59241 7.36195 3.25 6.5 3.25ZM12.75 17.5C12.75 16.2402 13.2504 15.032 14.1412 14.1412C15.032 13.2504 16.2402 12.75 17.5 12.75C18.7598 12.75 19.968 13.2504 20.8588 14.1412C21.7496 15.032 22.25 16.2402 22.25 17.5C22.25 18.7598 21.7496 19.968 20.8588 20.8588C19.968 21.7496 18.7598 22.25 17.5 22.25C16.2402 22.25 15.032 21.7496 14.1412 20.8588C13.2504 19.968 12.75 18.7598 12.75 17.5ZM17.5 14.25C16.638 14.25 15.8114 14.5924 15.2019 15.2019C14.5924 15.8114 14.25 16.638 14.25 17.5C14.25 18.362 14.5924 19.1886 15.2019 19.7981C15.8114 20.4076 16.638 20.75 17.5 20.75C18.362 20.75 19.1886 20.4076 19.7981 19.7981C20.4076 19.1886 20.75 18.362 20.75 17.5C20.75 16.638 20.4076 15.8114 19.7981 15.2019C19.1886 14.5924 18.362 14.25 17.5 14.25Z" fill="#278664"/>
</g>
</svg>
