<svg width="32" height="32" viewBox="0 0 32 32" fill="none" xmlns="http://www.w3.org/2000/svg">
<g id="heroicons-outline:pencil-alt">
<path id="Vector" d="M14.6667 6.66672H8.00001C7.29277 6.66672 6.61449 6.94767 6.11439 7.44777C5.61429 7.94787 5.33334 8.62614 5.33334 9.33339V24.0001C5.33334 24.7073 5.61429 25.3856 6.11439 25.8857C6.61449 26.3858 7.29277 26.6667 8.00001 26.6667H22.6667C23.3739 26.6667 24.0522 26.3858 24.5523 25.8857C25.0524 25.3856 25.3333 24.7073 25.3333 24.0001V17.3334M23.448 4.78139C23.694 4.52669 23.9883 4.32354 24.3136 4.18378C24.6389 4.04403 24.9889 3.97046 25.3429 3.96739C25.697 3.96431 26.0482 4.03178 26.3759 4.16586C26.7036 4.29994 27.0013 4.49795 27.2517 4.74833C27.5021 4.99871 27.7001 5.29645 27.8342 5.62418C27.9683 5.9519 28.0358 6.30305 28.0327 6.65712C28.0296 7.0112 27.956 7.36112 27.8163 7.68647C27.6765 8.01181 27.4734 8.30606 27.2187 8.55205L15.7707 20.0001H12V16.2294L23.448 4.78139Z" stroke="white" stroke-linecap="round" stroke-linejoin="round"/>
</g>
</svg>
