<svg width="24" height="24" viewBox="0 0 24 24" fill="none" xmlns="http://www.w3.org/2000/svg">
<g id="clarity:circle-arrow-solid" clip-path="url(#clip0_449_950)">
<path id="Vector" d="M12 1.33334C9.89033 1.33334 7.82804 1.95893 6.07392 3.131C4.31979 4.30307 2.95262 5.96897 2.14528 7.91805C1.33795 9.86713 1.12671 12.0118 1.53829 14.081C1.94987 16.1501 2.96577 18.0507 4.45753 19.5425C5.94929 21.0342 7.84991 22.0501 9.91904 22.4617C11.9882 22.8733 14.1329 22.6621 16.082 21.8547C18.031 21.0474 19.6969 19.6802 20.869 17.9261C22.0411 16.172 22.6667 14.1097 22.6667 12C22.6667 9.17103 21.5429 6.45793 19.5425 4.45754C17.5421 2.45715 14.829 1.33334 12 1.33334ZM17.3333 11.7133C17.1552 11.8876 16.9159 11.9852 16.6667 11.9852C16.4175 11.9852 16.1781 11.8876 16 11.7133L12.9333 8.66668V18.0933C12.9333 18.3409 12.835 18.5783 12.66 18.7533C12.4849 18.9283 12.2475 19.0267 12 19.0267C11.7525 19.0267 11.5151 18.9283 11.34 18.7533C11.165 18.5783 11.0667 18.3409 11.0667 18.0933V8.76001L8.11333 11.7133C7.93652 11.8902 7.69671 11.9895 7.44667 11.9895C7.19662 11.9895 6.95681 11.8902 6.78 11.7133C6.60319 11.5365 6.50386 11.2967 6.50386 11.0467C6.50386 10.7966 6.60319 10.5568 6.78 10.38L12.0533 5.13334L17.3333 10.3933C17.42 10.48 17.4888 10.5829 17.5357 10.6961C17.5826 10.8094 17.6067 10.9308 17.6067 11.0533C17.6067 11.1759 17.5826 11.2973 17.5357 11.4105C17.4888 11.5238 17.42 11.6267 17.3333 11.7133Z" fill="#278664"/>
</g>
<defs>
<clipPath id="clip0_449_950">
<rect width="24" height="24" fill="white"/>
</clipPath>
</defs>
</svg>
