<svg width="36" height="36" viewBox="0 0 36 36" fill="none" xmlns="http://www.w3.org/2000/svg">
<rect width="36" height="36" fill="#1E1E1E"/>
<g clip-path="url(#clip0_0_1)">
<path d="M32.57 15.72L29.22 14.72C28.9884 13.9113 28.6699 13.1301 28.27 12.39L29.91 9.32C29.9715 9.20412 29.9941 9.07148 29.9743 8.94178C29.9544 8.81208 29.8933 8.69222 29.8 8.6L27.41 6.2C27.3178 6.10667 27.1979 6.04556 27.0682 6.02575C26.9385 6.00593 26.8059 6.02846 26.69 6.09L23.64 7.72C22.8926 7.30066 22.1011 6.96529 21.28 6.72L20.28 3.41C20.2377 3.28802 20.1578 3.1826 20.0518 3.10892C19.9457 3.03525 19.8191 2.99711 19.69 3H16.31C16.1801 3.00061 16.0539 3.04264 15.9495 3.11997C15.8452 3.19731 15.7683 3.30592 15.73 3.43L14.73 6.73C13.902 6.97398 13.1038 7.30938 12.35 7.73L9.35 6.11C9.23412 6.04846 9.10148 6.02593 8.97178 6.04575C8.84208 6.06556 8.72222 6.12667 8.63 6.22L6.2 8.59C6.10667 8.68222 6.04556 8.80208 6.02575 8.93178C6.00593 9.06148 6.02846 9.19412 6.09 9.31L7.71 12.31C7.29006 13.0606 6.95467 13.8555 6.71 14.68L3.4 15.68C3.27592 15.7183 3.16731 15.7952 3.08997 15.8996C3.01264 16.0039 2.97061 16.1301 2.97 16.26V19.64C2.97061 19.7699 3.01264 19.8961 3.08997 20.0005C3.16731 20.1048 3.27592 20.1817 3.4 20.22L6.73 21.22C6.97735 22.0308 7.31268 22.8121 7.73 23.55L6.09 26.69C6.02846 26.8059 6.00593 26.9385 6.02575 27.0682C6.04556 27.1979 6.10667 27.3178 6.2 27.41L8.59 29.8C8.68222 29.8933 8.80208 29.9544 8.93178 29.9743C9.06148 29.9941 9.19412 29.9715 9.31 29.91L12.4 28.26C13.131 28.6544 13.902 28.9696 14.7 29.2L15.7 32.57C15.7383 32.6941 15.8152 32.8027 15.9195 32.88C16.0239 32.9574 16.1501 32.9994 16.28 33H19.66C19.7899 32.9994 19.9161 32.9574 20.0205 32.88C20.1248 32.8027 20.2017 32.6941 20.24 32.57L21.24 29.19C22.0312 28.9584 22.7955 28.6433 23.52 28.25L26.63 29.91C26.7459 29.9715 26.8785 29.9941 27.0082 29.9743C27.1379 29.9544 27.2578 29.8933 27.35 29.8L29.74 27.41C29.8333 27.3178 29.8944 27.1979 29.9143 27.0682C29.9341 26.9385 29.9115 26.8059 29.85 26.69L28.19 23.59C28.5874 22.8627 28.9058 22.095 29.14 21.3L32.51 20.3C32.6341 20.2617 32.7427 20.1848 32.82 20.0805C32.8974 19.9761 32.9394 19.8499 32.94 19.72V16.31C32.9459 16.1857 32.9136 16.0625 32.8475 15.957C32.7813 15.8515 32.6845 15.7688 32.57 15.72ZM18 23.5C16.9122 23.5 15.8488 23.1774 14.9444 22.5731C14.0399 21.9687 13.3349 21.1098 12.9187 20.1048C12.5024 19.0998 12.3935 17.9939 12.6057 16.927C12.8179 15.8601 13.3417 14.8801 14.1109 14.1109C14.8801 13.3417 15.8601 12.8179 16.927 12.6057C17.9939 12.3935 19.0998 12.5024 20.1048 12.9187C21.1098 13.3349 21.9687 14.0399 22.5731 14.9444C23.1774 15.8488 23.5 16.9122 23.5 18C23.5 19.4587 22.9205 20.8576 21.8891 21.8891C20.8576 22.9205 19.4587 23.5 18 23.5Z" fill="#278664"/>
</g>
<defs>
<clipPath id="clip0_0_1">
<rect width="36" height="36" fill="white"/>
</clipPath>
</defs>
</svg>
